<?xml version="1.0" encoding="utf-8"?>
<!-- Generator: Adobe Illustrator 20.1.0, SVG Export Plug-In . SVG Version: 6.00 Build 0)  -->
<svg version="1.1" id="Layer_2" xmlns="http://www.w3.org/2000/svg" xmlns:xlink="http://www.w3.org/1999/xlink" x="0px" y="0px"
	 width="126px" height="42px" viewBox="0 0 126 42" enable-background="new 0 0 126 42" xml:space="preserve">
<polygon fill="#FFFFFF" points="10,1 42,1 42,33 32,42 32,19 9,42 7,42 1,36 1,34 24,12 1,12 "/>
<g>
	<path fill="#FFFFFF" d="M61.1,12.6c0.3,0.1,0.6,0.1,0.9,0.1c0.7,0,1.1-0.5,1.4-1.4c0.2-0.9,0.4-2.7,0.4-5.2l0.1-3.7h8.9V15h-2.6
		V4.7h-3.8l-0.1,2.6c-0.1,2.9-0.4,5-1,6.1c-0.6,1.1-1.6,1.7-3.1,1.7c-0.5,0-0.8-0.1-1.1-0.2V12.6z"/>
	<path fill="#FFFFFF" d="M90.7,4.1c1.2,1.3,1.7,2.8,1.7,4.6c0,1.8-0.6,3.4-1.7,4.7c-1.2,1.3-2.6,1.9-4.4,1.9c-1.6,0-2.9-0.5-4-1.5
		c-1.1-1-1.7-2.3-2-3.9h-1.8V15h-2.6V2.4h2.6v5.1h1.8c0.3-1.5,0.9-2.8,2-3.8c1.1-1,2.4-1.5,4-1.5C88.1,2.1,89.6,2.8,90.7,4.1z
		 M88.9,11.7c0.6-0.8,1-1.8,1-3c0-1.2-0.3-2.3-1-3c-0.6-0.8-1.5-1.1-2.5-1.1c-1,0-1.8,0.4-2.5,1.1c-0.6,0.7-1,1.7-1,3
		c0,1.2,0.3,2.2,1,3c0.6,0.8,1.5,1.1,2.5,1.1C87.4,12.8,88.2,12.4,88.9,11.7z"/>
	<path fill="#FFFFFF" d="M93.5,17.6v-4.9h1.2c0.6-0.9,1-2,1.3-3.2c0.3-1.3,0.4-3,0.4-5v-2h8.9v10.3h1.7v4.9h-2.4V15h-8.6v2.6H93.5z
		 M102.7,12.7v-8H99c0,3.2-0.3,5.7-1.4,8H102.7z"/>
	<path fill="#FFFFFF" d="M109.2,15V2.4h2.6v8.2l6.1-8.2h2.2V15h-2.6V6.7l-6.2,8.3H109.2z"/>
	<path fill="#FFFFFF" d="M62.4,39V26.4h5.5c1.3,0,2.4,0.4,3.2,1.1c0.8,0.7,1.2,1.6,1.2,2.7s-0.4,2.1-1.2,2.8
		c-0.8,0.7-1.9,1.1-3.2,1.1H65v5H62.4z M65,31.8h2.7c1.2,0,2-0.6,2-1.6s-0.7-1.6-2-1.6H65V31.8z"/>
	<path fill="#FFFFFF" d="M76,28.1c1.2-1.3,2.8-1.9,4.7-1.9s3.4,0.6,4.7,1.9c1.2,1.3,1.9,2.8,1.9,4.6c0,1.8-0.6,3.4-1.9,4.6
		s-2.8,1.9-4.7,1.9s-3.4-0.6-4.7-1.9s-1.9-2.8-1.9-4.6C74.2,30.9,74.8,29.3,76,28.1z M80.7,36.8c1.1,0,2-0.4,2.8-1.2
		c0.7-0.8,1.1-1.8,1.1-3s-0.4-2.2-1.1-3c-0.7-0.8-1.7-1.2-2.8-1.2s-2.1,0.4-2.8,1.2c-0.7,0.8-1.1,1.8-1.1,3s0.4,2.2,1.1,3
		C78.7,36.4,79.6,36.8,80.7,36.8z"/>
	<path fill="#FFFFFF" d="M91.5,37.4c-1.3-1.2-1.9-2.8-1.9-4.7c0-1.9,0.6-3.5,1.9-4.7c1.3-1.2,2.9-1.8,4.9-1.8c1.2,0,2.3,0.3,3.3,0.8
		v2.6c-1-0.6-2.1-1-3.3-1c-1.2,0-2.2,0.4-3,1.2c-0.8,0.8-1.2,1.7-1.2,3c0,1.2,0.4,2.2,1.2,3c0.8,0.8,1.8,1.2,3.1,1.2
		c1.4,0,2.5-0.4,3.5-1.1v2.6c-1,0.6-2.2,0.9-3.6,0.9C94.4,39.3,92.8,38.6,91.5,37.4z"/>
	<path fill="#FFFFFF" d="M101.6,26.4h10.6v2.3h-4V39h-2.6V28.7h-4V26.4z"/>
	<path fill="#FFFFFF" d="M111.6,39l5.4-12.7h2.5l5.4,12.7h-2.8l-1.2-2.9h-5.3l-1.2,2.9H111.6z M116.4,33.9h3.7l-1.8-4.4L116.4,33.9z
		"/>
</g>
</svg>
