<?xml version="1.0" encoding="utf-8"?>
<!-- Generator: Adobe Illustrator 20.1.0, SVG Export Plug-In . SVG Version: 6.00 Build 0)  -->
<svg version="1.1" xmlns="http://www.w3.org/2000/svg" xmlns:xlink="http://www.w3.org/1999/xlink" x="0px" y="0px" width="98px"
	 height="136px" viewBox="0 0 98 136" enable-background="new 0 0 98 136" xml:space="preserve">
<g id="Layer_3" opacity="0.57">
</g>
<g id="Layer_4">
	<g>
		<path fill="#FFFFFF" d="M36,60.3c0,6.3,3,11.6,13,11.6s13-5.3,13-11.6V17h4L50,0h-2L32,17h4V60.3z"/>
		<path fill="#FFFFFF" d="M81,28.2V62c0,17.7-13.8,28.3-32,28.3S17,79.7,17,62V27.7C7,36.6,0,49.8,0,64.5C0,91.3,21.7,113,48.5,113
			c26.8,0,48.7-21.7,48.7-48.5C97.2,50.1,91,37.1,81,28.2z"/>
	</g>
	<g>
		<path fill="#FFFFFF" d="M16.8,133.9c-1-0.9-1.4-2.2-1.4-3.9v-6.9h2.4v7c0,1.9,1.1,2.9,2.7,2.9c1.6,0,2.7-1,2.7-2.9v-7h2.4v6.9
			c0,1.6-0.5,2.9-1.4,3.9c-1,0.9-2.2,1.4-3.7,1.4C19,135.2,17.8,134.8,16.8,133.9z"/>
		<path fill="#FFFFFF" d="M28.4,135v-11.9h5.2c1.3,0,2.3,0.3,3,1c0.7,0.7,1.1,1.5,1.1,2.6c0,1.1-0.4,1.9-1.1,2.6c-0.7,0.7-1.8,1-3,1
			h-2.8v4.7H28.4z M30.8,128.2h2.6c1.2,0,1.9-0.5,1.9-1.5s-0.7-1.5-1.9-1.5h-2.6V128.2z"/>
		<path fill="#FFFFFF" d="M41.3,133.5c-1.2-1.2-1.8-2.7-1.8-4.5c0-1.8,0.6-3.3,1.8-4.5c1.2-1.2,2.8-1.7,4.6-1.7
			c1.2,0,2.2,0.3,3.1,0.7v2.5c-0.9-0.6-2-0.9-3.1-0.9c-1.1,0-2.1,0.4-2.8,1.1c-0.7,0.7-1.1,1.6-1.1,2.8s0.4,2.1,1.2,2.8
			c0.8,0.7,1.7,1.1,2.9,1.1c1.3,0,2.4-0.3,3.3-1v2.5c-1,0.6-2.1,0.9-3.4,0.9C44.1,135.2,42.6,134.7,41.3,133.5z"/>
		<path fill="#FFFFFF" d="M52.9,124.7c1.2-1.2,2.7-1.8,4.4-1.8s3.2,0.6,4.4,1.8c1.2,1.2,1.8,2.7,1.8,4.4c0,1.7-0.6,3.2-1.8,4.4
			c-1.2,1.2-2.6,1.8-4.4,1.8s-3.2-0.6-4.4-1.8c-1.2-1.2-1.8-2.7-1.8-4.4C51.2,127.3,51.8,125.9,52.9,124.7z M57.4,132.9
			c1.1,0,1.9-0.4,2.6-1.1c0.7-0.7,1.1-1.7,1.1-2.8s-0.4-2.1-1.1-2.8c-0.7-0.7-1.6-1.1-2.6-1.1c-1.1,0-1.9,0.4-2.6,1.1
			c-0.7,0.7-1,1.7-1,2.8s0.3,2.1,1,2.8C55.4,132.6,56.3,132.9,57.4,132.9z"/>
		<path fill="#FFFFFF" d="M66.2,135v-11.9h2.4V135H66.2z"/>
		<path fill="#FFFFFF" d="M71.6,135v-11.9h2.1l6,7.6v-7.6h2.4V135h-2l-6.1-7.6v7.6H71.6z"/>
	</g>
</g>
</svg>
